<?xml version="1.0" encoding="UTF-8"?>
<mxfile host="app.diagrams.net" modified="2025-06-29T00:00:00.000Z" agent="AI Generated" version="21.5.2" type="device">
  <diagram id="RMO_Component_Diagram" name="RMO Component Diagram">
    <mxGraphModel dx="1500" dy="1500" grid="1" gridSize="10" guides="1" tooltips="1" connect="1" arrows="1" fold="1" page="1" pageScale="1" pageWidth="1169" pageHeight="827" background="#ffffff">
      <root>
        <mxCell id="0"/>
        <mxCell id="1" parent="0"/>
        <!-- Frontend Layer -->
        <mxCell id="frontend_container" value="Frontend Layer" style="swimlane;fontStyle=0;childLayout=stackLayout;horizontal=1;startSize=30;fillColor=#dae8fc;horizontalStack=0;resizeParent=1;resizeParentMax=0;resizeLast=0;collapsible=1;marginBottom=0;strokeColor=#6c8ebf;" vertex="1" parent="1">
          <mxGeometry x="40" y="40" width="1000" height="200" as="geometry"/>
        </mxCell>
        <!-- Components in Frontend -->
        <mxCell id="pages" value="Pages&#10;(Next.js App Router)" style="rounded=1;whiteSpace=wrap;html=1;fillColor=#f5f5f5;strokeColor=#666666;fontColor=#333333;" vertex="1" parent="frontend_container">
          <mxGeometry x="20" y="40" width="120" height="60" as="geometry"/>
        </mxCell>
        <!-- Add more frontend components -->
        
        <!-- Application Layer -->
        <mxCell id="application_container" value="Application Layer" style="swimlane;fontStyle=0;childLayout=stackLayout;horizontal=1;startSize=30;fillColor=#d5e8d4;horizontalStack=0;resizeParent=1;resizeParentMax=0;resizeLast=0;collapsible=1;marginBottom=0;strokeColor=#82b366;" vertex="1" parent="1">
          <mxGeometry x="40" y="260" width="1000" height="200" as="geometry"/>
        </mxCell>
        <!-- Add application components -->
        
        <!-- Domain Layer -->
        <mxCell id="domain_container" value="Domain Layer" style="swimlane;fontStyle=0;childLayout=stackLayout;horizontal=1;startSize=30;fillColor=#fff2cc;horizontalStack=0;resizeParent=1;resizeParentMax=0;resizeLast=0;collapsible=1;marginBottom=0;strokeColor=#d6b656;" vertex="1" parent="1">
          <mxGeometry x="40" y="480" width="1000" height="200" as="geometry"/>
        </mxCell>
        <!-- Add domain components -->
        
        <!-- Infrastructure Layer -->
        <mxCell id="infrastructure_container" value="Infrastructure Layer" style="swimlane;fontStyle=0;childLayout=stackLayout;horizontal=1;startSize=30;fillColor=#e1d5e7;horizontalStack=0;resizeParent=1;resizeParentMax=0;resizeLast=0;collapsible=1;marginBottom=0;strokeColor=#9673a6;" vertex="1" parent="1">
          <mxGeometry x="40" y="700" width="1000" height="200" as="geometry"/>
        </mxCell>
        <!-- Add infrastructure components -->
      </root>
    </mxGraphModel>
  </diagram>
</mxfile>
